<mxfile host="app.diagrams.net" modified="2023-06-22T17:50:16.586Z" agent="Mozilla/5.0 (Windows NT 10.0; Win64; x64) AppleWebKit/537.36 (KHTML, like Gecko) Chrome/112.0.0.0 YaBrowser/23.5.2.625 Yowser/2.5 Safari/537.36" etag="GtKfulmWkZa7kklbGVt3" version="21.3.8" type="device">
  <diagram id="rmSN71bOwlpbdHbtHO8j" name="Page-1">
    <mxGraphModel dx="1829" dy="1744" grid="1" gridSize="10" guides="1" tooltips="1" connect="1" arrows="1" fold="1" page="1" pageScale="1" pageWidth="827" pageHeight="1169" math="0" shadow="0">
      <root>
        <mxCell id="0" />
        <mxCell id="1" parent="0" />
        <mxCell id="QM2pPld5sJUEKNhpBry5-10" style="rounded=0;orthogonalLoop=1;jettySize=auto;html=1;exitX=0.25;exitY=1;exitDx=0;exitDy=0;entryX=0.25;entryY=0;entryDx=0;entryDy=0;startArrow=ERzeroToMany;startFill=1;endArrow=ERoneToMany;endFill=0;" parent="1" source="Zx6UGHlu475DOXal6dqd-1" target="Zx6UGHlu475DOXal6dqd-2" edge="1">
          <mxGeometry relative="1" as="geometry" />
        </mxCell>
        <mxCell id="QM2pPld5sJUEKNhpBry5-12" style="edgeStyle=orthogonalEdgeStyle;rounded=0;orthogonalLoop=1;jettySize=auto;html=1;exitX=1;exitY=0.5;exitDx=0;exitDy=0;startArrow=ERoneToMany;startFill=0;endArrow=ERzeroToOne;endFill=1;" parent="1" source="Zx6UGHlu475DOXal6dqd-1" target="Zx6UGHlu475DOXal6dqd-8" edge="1">
          <mxGeometry relative="1" as="geometry" />
        </mxCell>
        <mxCell id="Zx6UGHlu475DOXal6dqd-1" value="Клиент" style="rounded=0;whiteSpace=wrap;html=1;" parent="1" vertex="1">
          <mxGeometry x="38" y="10" width="120" height="60" as="geometry" />
        </mxCell>
        <mxCell id="Zx6UGHlu475DOXal6dqd-2" value="Сотрудник" style="rounded=0;whiteSpace=wrap;html=1;" parent="1" vertex="1">
          <mxGeometry x="40" y="260" width="120" height="60" as="geometry" />
        </mxCell>
        <mxCell id="QM2pPld5sJUEKNhpBry5-1" style="edgeStyle=orthogonalEdgeStyle;rounded=0;orthogonalLoop=1;jettySize=auto;html=1;exitX=0.5;exitY=1;exitDx=0;exitDy=0;entryX=0.5;entryY=0;entryDx=0;entryDy=0;startArrow=ERmandOne;startFill=0;endArrow=ERzeroToMany;endFill=1;" parent="1" source="Zx6UGHlu475DOXal6dqd-3" target="Zx6UGHlu475DOXal6dqd-7" edge="1">
          <mxGeometry relative="1" as="geometry" />
        </mxCell>
        <mxCell id="QM2pPld5sJUEKNhpBry5-2" style="edgeStyle=orthogonalEdgeStyle;rounded=0;orthogonalLoop=1;jettySize=auto;html=1;exitX=0.5;exitY=1;exitDx=0;exitDy=0;entryX=0.5;entryY=0;entryDx=0;entryDy=0;startArrow=ERmandOne;startFill=0;endArrow=ERzeroToMany;endFill=1;" parent="1" source="Zx6UGHlu475DOXal6dqd-3" target="Zx6UGHlu475DOXal6dqd-2" edge="1">
          <mxGeometry relative="1" as="geometry" />
        </mxCell>
        <mxCell id="QM2pPld5sJUEKNhpBry5-14" style="edgeStyle=orthogonalEdgeStyle;rounded=0;orthogonalLoop=1;jettySize=auto;html=1;exitX=0.75;exitY=0;exitDx=0;exitDy=0;entryX=0.25;entryY=1;entryDx=0;entryDy=0;startArrow=ERmandOne;startFill=0;endArrow=ERzeroToMany;endFill=1;" parent="1" source="Zx6UGHlu475DOXal6dqd-3" target="Zx6UGHlu475DOXal6dqd-8" edge="1">
          <mxGeometry relative="1" as="geometry" />
        </mxCell>
        <mxCell id="Zx6UGHlu475DOXal6dqd-3" value="Администратор" style="rounded=0;whiteSpace=wrap;html=1;" parent="1" vertex="1">
          <mxGeometry x="270" y="120" width="120" height="60" as="geometry" />
        </mxCell>
        <mxCell id="Zx6UGHlu475DOXal6dqd-7" value="Помещение" style="rounded=0;whiteSpace=wrap;html=1;" parent="1" vertex="1">
          <mxGeometry x="500" y="260" width="120" height="60" as="geometry" />
        </mxCell>
        <mxCell id="QM2pPld5sJUEKNhpBry5-11" style="edgeStyle=orthogonalEdgeStyle;rounded=0;orthogonalLoop=1;jettySize=auto;html=1;exitX=0.75;exitY=1;exitDx=0;exitDy=0;entryX=0.75;entryY=0;entryDx=0;entryDy=0;startArrow=ERmandOne;startFill=0;endArrow=ERoneToMany;endFill=0;" parent="1" source="Zx6UGHlu475DOXal6dqd-8" target="Zx6UGHlu475DOXal6dqd-7" edge="1">
          <mxGeometry relative="1" as="geometry" />
        </mxCell>
        <mxCell id="Zx6UGHlu475DOXal6dqd-8" value="Заявка" style="rounded=0;whiteSpace=wrap;html=1;" parent="1" vertex="1">
          <mxGeometry x="500" y="10" width="120" height="60" as="geometry" />
        </mxCell>
        <mxCell id="Zx6UGHlu475DOXal6dqd-10" value="Содержит" style="rhombus;whiteSpace=wrap;html=1;" parent="1" vertex="1">
          <mxGeometry x="515" y="120" width="150" height="47" as="geometry" />
        </mxCell>
        <mxCell id="Zx6UGHlu475DOXal6dqd-15" value="Записывает" style="rhombus;whiteSpace=wrap;html=1;" parent="1" vertex="1">
          <mxGeometry y="117" width="145" height="35" as="geometry" />
        </mxCell>
        <mxCell id="Zx6UGHlu475DOXal6dqd-19" value="Управляет" style="rhombus;whiteSpace=wrap;html=1;" parent="1" vertex="1">
          <mxGeometry x="228.5" y="200" width="203" height="41" as="geometry" />
        </mxCell>
        <mxCell id="Zx6UGHlu475DOXal6dqd-20" value="Просматривает" style="rhombus;whiteSpace=wrap;html=1;" parent="1" vertex="1">
          <mxGeometry x="400" y="74" width="115" height="46" as="geometry" />
        </mxCell>
        <mxCell id="Zx6UGHlu475DOXal6dqd-9" value="Оформление" style="rhombus;whiteSpace=wrap;html=1;" parent="1" vertex="1">
          <mxGeometry x="260" y="15" width="140" height="50" as="geometry" />
        </mxCell>
        <mxCell id="QM2pPld5sJUEKNhpBry5-96" value="" style="edgeStyle=none;rounded=0;orthogonalLoop=1;jettySize=auto;html=1;startArrow=none;startFill=0;endArrow=none;endFill=0;" parent="1" source="QM2pPld5sJUEKNhpBry5-17" target="Zx6UGHlu475DOXal6dqd-1" edge="1">
          <mxGeometry relative="1" as="geometry" />
        </mxCell>
        <mxCell id="QM2pPld5sJUEKNhpBry5-17" value="Фамилия" style="ellipse;whiteSpace=wrap;html=1;" parent="1" vertex="1">
          <mxGeometry x="40" y="-57.5" width="60" height="25" as="geometry" />
        </mxCell>
        <mxCell id="QM2pPld5sJUEKNhpBry5-95" style="edgeStyle=none;rounded=0;orthogonalLoop=1;jettySize=auto;html=1;exitX=0.5;exitY=1;exitDx=0;exitDy=0;entryX=0.75;entryY=0;entryDx=0;entryDy=0;startArrow=none;startFill=0;endArrow=none;endFill=0;" parent="1" source="QM2pPld5sJUEKNhpBry5-18" target="Zx6UGHlu475DOXal6dqd-1" edge="1">
          <mxGeometry relative="1" as="geometry" />
        </mxCell>
        <mxCell id="QM2pPld5sJUEKNhpBry5-18" value="Имя" style="ellipse;whiteSpace=wrap;html=1;" parent="1" vertex="1">
          <mxGeometry x="118.5" y="-52.5" width="50" height="20" as="geometry" />
        </mxCell>
        <mxCell id="QM2pPld5sJUEKNhpBry5-100" style="edgeStyle=none;rounded=0;orthogonalLoop=1;jettySize=auto;html=1;exitX=0.5;exitY=1;exitDx=0;exitDy=0;entryX=0.825;entryY=0.017;entryDx=0;entryDy=0;entryPerimeter=0;startArrow=none;startFill=0;endArrow=none;endFill=0;" parent="1" source="QM2pPld5sJUEKNhpBry5-19" target="Zx6UGHlu475DOXal6dqd-1" edge="1">
          <mxGeometry relative="1" as="geometry" />
        </mxCell>
        <mxCell id="QM2pPld5sJUEKNhpBry5-19" value="Отчество" style="ellipse;whiteSpace=wrap;html=1;" parent="1" vertex="1">
          <mxGeometry x="168.5" y="-35" width="60" height="30" as="geometry" />
        </mxCell>
        <mxCell id="QM2pPld5sJUEKNhpBry5-65" style="edgeStyle=none;rounded=0;orthogonalLoop=1;jettySize=auto;html=1;exitX=0.5;exitY=0;exitDx=0;exitDy=0;entryX=0.5;entryY=1;entryDx=0;entryDy=0;startArrow=none;startFill=0;endArrow=none;endFill=0;" parent="1" source="QM2pPld5sJUEKNhpBry5-28" target="Zx6UGHlu475DOXal6dqd-2" edge="1">
          <mxGeometry relative="1" as="geometry" />
        </mxCell>
        <mxCell id="QM2pPld5sJUEKNhpBry5-28" value="Пароль" style="ellipse;whiteSpace=wrap;html=1;" parent="1" vertex="1">
          <mxGeometry x="90" y="350" width="55" height="30" as="geometry" />
        </mxCell>
        <mxCell id="QM2pPld5sJUEKNhpBry5-67" style="edgeStyle=none;rounded=0;orthogonalLoop=1;jettySize=auto;html=1;exitX=0;exitY=0;exitDx=0;exitDy=0;entryX=0.75;entryY=1;entryDx=0;entryDy=0;startArrow=none;startFill=0;endArrow=none;endFill=0;" parent="1" source="QM2pPld5sJUEKNhpBry5-29" target="Zx6UGHlu475DOXal6dqd-2" edge="1">
          <mxGeometry relative="1" as="geometry" />
        </mxCell>
        <mxCell id="QM2pPld5sJUEKNhpBry5-29" value="Фото_профиля" style="ellipse;whiteSpace=wrap;html=1;" parent="1" vertex="1">
          <mxGeometry x="158" y="330" width="92" height="40" as="geometry" />
        </mxCell>
        <mxCell id="QM2pPld5sJUEKNhpBry5-91" style="edgeStyle=none;rounded=0;orthogonalLoop=1;jettySize=auto;html=1;exitX=0.5;exitY=0;exitDx=0;exitDy=0;entryX=0.194;entryY=1.043;entryDx=0;entryDy=0;entryPerimeter=0;startArrow=none;startFill=0;endArrow=none;endFill=0;" parent="1" source="QM2pPld5sJUEKNhpBry5-30" target="Zx6UGHlu475DOXal6dqd-2" edge="1">
          <mxGeometry relative="1" as="geometry" />
        </mxCell>
        <mxCell id="QM2pPld5sJUEKNhpBry5-30" value="Логин" style="ellipse;whiteSpace=wrap;html=1;" parent="1" vertex="1">
          <mxGeometry x="17" y="350" width="60" height="30" as="geometry" />
        </mxCell>
        <mxCell id="QM2pPld5sJUEKNhpBry5-97" style="edgeStyle=none;rounded=0;orthogonalLoop=1;jettySize=auto;html=1;exitX=0.5;exitY=1;exitDx=0;exitDy=0;entryX=0.25;entryY=0;entryDx=0;entryDy=0;startArrow=none;startFill=0;endArrow=none;endFill=0;" parent="1" source="QM2pPld5sJUEKNhpBry5-31" target="Zx6UGHlu475DOXal6dqd-1" edge="1">
          <mxGeometry relative="1" as="geometry" />
        </mxCell>
        <mxCell id="QM2pPld5sJUEKNhpBry5-31" value="Телефон" style="ellipse;whiteSpace=wrap;html=1;" parent="1" vertex="1">
          <mxGeometry x="-20" y="-45" width="60" height="30" as="geometry" />
        </mxCell>
        <mxCell id="QM2pPld5sJUEKNhpBry5-79" style="edgeStyle=none;rounded=0;orthogonalLoop=1;jettySize=auto;html=1;exitX=0;exitY=0.5;exitDx=0;exitDy=0;entryX=1;entryY=0.5;entryDx=0;entryDy=0;startArrow=none;startFill=0;endArrow=none;endFill=0;" parent="1" source="QM2pPld5sJUEKNhpBry5-35" target="Zx6UGHlu475DOXal6dqd-8" edge="1">
          <mxGeometry relative="1" as="geometry" />
        </mxCell>
        <mxCell id="QM2pPld5sJUEKNhpBry5-35" value="Телефон" style="ellipse;whiteSpace=wrap;html=1;" parent="1" vertex="1">
          <mxGeometry x="640" width="70" height="30" as="geometry" />
        </mxCell>
        <mxCell id="QM2pPld5sJUEKNhpBry5-86" style="edgeStyle=none;rounded=0;orthogonalLoop=1;jettySize=auto;html=1;exitX=0;exitY=0.5;exitDx=0;exitDy=0;startArrow=none;startFill=0;endArrow=none;endFill=0;" parent="1" source="QM2pPld5sJUEKNhpBry5-36" target="Zx6UGHlu475DOXal6dqd-8" edge="1">
          <mxGeometry relative="1" as="geometry" />
        </mxCell>
        <mxCell id="QM2pPld5sJUEKNhpBry5-36" value="Дата_время_брони" style="ellipse;whiteSpace=wrap;html=1;" parent="1" vertex="1">
          <mxGeometry x="687.5" y="33" width="112.5" height="34" as="geometry" />
        </mxCell>
        <mxCell id="QM2pPld5sJUEKNhpBry5-83" style="edgeStyle=none;rounded=0;orthogonalLoop=1;jettySize=auto;html=1;exitX=0;exitY=0;exitDx=0;exitDy=0;entryX=0.9;entryY=0.994;entryDx=0;entryDy=0;entryPerimeter=0;startArrow=none;startFill=0;endArrow=none;endFill=0;" parent="1" source="QM2pPld5sJUEKNhpBry5-37" target="Zx6UGHlu475DOXal6dqd-8" edge="1">
          <mxGeometry relative="1" as="geometry" />
        </mxCell>
        <mxCell id="QM2pPld5sJUEKNhpBry5-37" value="Код_помещения" style="ellipse;whiteSpace=wrap;html=1;" parent="1" vertex="1">
          <mxGeometry x="625" y="77" width="100" height="40" as="geometry" />
        </mxCell>
        <mxCell id="QM2pPld5sJUEKNhpBry5-74" style="edgeStyle=none;rounded=0;orthogonalLoop=1;jettySize=auto;html=1;exitX=0;exitY=0.5;exitDx=0;exitDy=0;startArrow=none;startFill=0;endArrow=none;endFill=0;" parent="1" source="QM2pPld5sJUEKNhpBry5-38" target="Zx6UGHlu475DOXal6dqd-7" edge="1">
          <mxGeometry relative="1" as="geometry" />
        </mxCell>
        <mxCell id="QM2pPld5sJUEKNhpBry5-38" value="Название&lt;span style=&quot;font-family: &amp;#34;helvetica&amp;#34; , &amp;#34;arial&amp;#34; , sans-serif ; font-size: 0px ; white-space: nowrap&quot;&gt;%3CmxGraphModel%3E%3Croot%3E%3CmxCell%20id%3D%220%22%2F%3E%3CmxCell%20id%3D%221%22%20parent%3D%220%22%2F%3E%3CmxCell%20id%3D%222%22%20value%3D%22%D0%9D%D0%B0%D0%B7%D0%B2%D0%B0%D0%BD%D0%B8%D0%B5(%D0%BD%D0%BE%D0%BC%D0%B5%D1%80)%22%20style%3D%22ellipse%3BwhiteSpace%3Dwrap%3Bhtml%3D1%3B%22%20vertex%3D%221%22%20parent%3D%221%22%3E%3CmxGeometry%20x%3D%22610%22%20y%3D%2280%22%20width%3D%22100%22%20height%3D%2240%22%20as%3D%22geometry%22%2F%3E%3C%2FmxCell%3E%3C%2Froot%3E%3C%2FmxGraphModel%3E&lt;/span&gt;" style="ellipse;whiteSpace=wrap;html=1;" parent="1" vertex="1">
          <mxGeometry x="630" y="220" width="70" height="32" as="geometry" />
        </mxCell>
        <mxCell id="QM2pPld5sJUEKNhpBry5-87" style="edgeStyle=none;rounded=0;orthogonalLoop=1;jettySize=auto;html=1;exitX=0;exitY=0.5;exitDx=0;exitDy=0;startArrow=none;startFill=0;endArrow=none;endFill=0;" parent="1" source="QM2pPld5sJUEKNhpBry5-39" target="Zx6UGHlu475DOXal6dqd-7" edge="1">
          <mxGeometry relative="1" as="geometry" />
        </mxCell>
        <mxCell id="QM2pPld5sJUEKNhpBry5-39" value="Номер" style="ellipse;whiteSpace=wrap;html=1;" parent="1" vertex="1">
          <mxGeometry x="650" y="270" width="60" height="30" as="geometry" />
        </mxCell>
        <mxCell id="QM2pPld5sJUEKNhpBry5-88" style="edgeStyle=none;rounded=0;orthogonalLoop=1;jettySize=auto;html=1;exitX=0.5;exitY=0;exitDx=0;exitDy=0;entryX=1.007;entryY=0.906;entryDx=0;entryDy=0;entryPerimeter=0;startArrow=none;startFill=0;endArrow=none;endFill=0;" parent="1" source="QM2pPld5sJUEKNhpBry5-43" target="Zx6UGHlu475DOXal6dqd-7" edge="1">
          <mxGeometry relative="1" as="geometry" />
        </mxCell>
        <mxCell id="QM2pPld5sJUEKNhpBry5-43" value="Вместительность" style="ellipse;whiteSpace=wrap;html=1;" parent="1" vertex="1">
          <mxGeometry x="650" y="330" width="100" height="40" as="geometry" />
        </mxCell>
        <mxCell id="QM2pPld5sJUEKNhpBry5-90" style="edgeStyle=none;rounded=0;orthogonalLoop=1;jettySize=auto;html=1;exitX=0.5;exitY=0;exitDx=0;exitDy=0;entryX=0.25;entryY=1;entryDx=0;entryDy=0;startArrow=none;startFill=0;endArrow=none;endFill=0;" parent="1" source="QM2pPld5sJUEKNhpBry5-44" target="Zx6UGHlu475DOXal6dqd-7" edge="1">
          <mxGeometry relative="1" as="geometry" />
        </mxCell>
        <mxCell id="QM2pPld5sJUEKNhpBry5-44" value="Стоимость" style="ellipse;whiteSpace=wrap;html=1;" parent="1" vertex="1">
          <mxGeometry x="483" y="365" width="77" height="30" as="geometry" />
        </mxCell>
        <mxCell id="QM2pPld5sJUEKNhpBry5-89" style="edgeStyle=none;rounded=0;orthogonalLoop=1;jettySize=auto;html=1;exitX=0.5;exitY=0;exitDx=0;exitDy=0;entryX=0.75;entryY=1;entryDx=0;entryDy=0;startArrow=none;startFill=0;endArrow=none;endFill=0;" parent="1" source="QM2pPld5sJUEKNhpBry5-45" target="Zx6UGHlu475DOXal6dqd-7" edge="1">
          <mxGeometry relative="1" as="geometry" />
        </mxCell>
        <mxCell id="QM2pPld5sJUEKNhpBry5-45" value="Адрес" style="ellipse;whiteSpace=wrap;html=1;" parent="1" vertex="1">
          <mxGeometry x="570" y="350" width="60" height="30" as="geometry" />
        </mxCell>
        <mxCell id="QM2pPld5sJUEKNhpBry5-59" style="edgeStyle=none;rounded=0;orthogonalLoop=1;jettySize=auto;html=1;exitX=1;exitY=0.5;exitDx=0;exitDy=0;entryX=0;entryY=0.5;entryDx=0;entryDy=0;startArrow=none;startFill=0;endArrow=none;endFill=0;" parent="1" source="QM2pPld5sJUEKNhpBry5-46" target="Zx6UGHlu475DOXal6dqd-1" edge="1">
          <mxGeometry relative="1" as="geometry" />
        </mxCell>
        <mxCell id="QM2pPld5sJUEKNhpBry5-46" value="Эл_почта" style="ellipse;whiteSpace=wrap;html=1;" parent="1" vertex="1">
          <mxGeometry x="-63" y="-5" width="63" height="30" as="geometry" />
        </mxCell>
        <mxCell id="QM2pPld5sJUEKNhpBry5-98" style="edgeStyle=none;rounded=0;orthogonalLoop=1;jettySize=auto;html=1;exitX=1;exitY=0.5;exitDx=0;exitDy=0;startArrow=none;startFill=0;endArrow=none;endFill=0;" parent="1" source="QM2pPld5sJUEKNhpBry5-47" target="Zx6UGHlu475DOXal6dqd-1" edge="1">
          <mxGeometry relative="1" as="geometry" />
        </mxCell>
        <mxCell id="QM2pPld5sJUEKNhpBry5-47" value="Дата_рождения" style="ellipse;whiteSpace=wrap;html=1;" parent="1" vertex="1">
          <mxGeometry x="-90" y="35" width="90" height="40" as="geometry" />
        </mxCell>
        <mxCell id="QM2pPld5sJUEKNhpBry5-93" style="edgeStyle=none;rounded=0;orthogonalLoop=1;jettySize=auto;html=1;exitX=0;exitY=0.5;exitDx=0;exitDy=0;startArrow=none;startFill=0;endArrow=none;endFill=0;" parent="1" source="QM2pPld5sJUEKNhpBry5-48" target="Zx6UGHlu475DOXal6dqd-1" edge="1">
          <mxGeometry relative="1" as="geometry" />
        </mxCell>
        <mxCell id="QM2pPld5sJUEKNhpBry5-48" value="Логин" style="ellipse;whiteSpace=wrap;html=1;" parent="1" vertex="1">
          <mxGeometry x="180" y="55" width="60" height="30" as="geometry" />
        </mxCell>
        <mxCell id="QM2pPld5sJUEKNhpBry5-94" style="edgeStyle=none;rounded=0;orthogonalLoop=1;jettySize=auto;html=1;exitX=0.5;exitY=0;exitDx=0;exitDy=0;entryX=0.628;entryY=1;entryDx=0;entryDy=0;entryPerimeter=0;startArrow=none;startFill=0;endArrow=none;endFill=0;" parent="1" source="QM2pPld5sJUEKNhpBry5-49" target="Zx6UGHlu475DOXal6dqd-1" edge="1">
          <mxGeometry relative="1" as="geometry" />
        </mxCell>
        <mxCell id="QM2pPld5sJUEKNhpBry5-49" value="Пароль" style="ellipse;whiteSpace=wrap;html=1;" parent="1" vertex="1">
          <mxGeometry x="95" y="87" width="50" height="27" as="geometry" />
        </mxCell>
        <mxCell id="QM2pPld5sJUEKNhpBry5-63" style="edgeStyle=none;rounded=0;orthogonalLoop=1;jettySize=auto;html=1;exitX=1;exitY=0.5;exitDx=0;exitDy=0;entryX=0;entryY=0.5;entryDx=0;entryDy=0;startArrow=none;startFill=0;endArrow=none;endFill=0;" parent="1" source="QM2pPld5sJUEKNhpBry5-50" target="Zx6UGHlu475DOXal6dqd-2" edge="1">
          <mxGeometry relative="1" as="geometry" />
        </mxCell>
        <mxCell id="QM2pPld5sJUEKNhpBry5-50" value="Эл_чек" style="ellipse;whiteSpace=wrap;html=1;" parent="1" vertex="1">
          <mxGeometry x="-51.5" y="313" width="63" height="34" as="geometry" />
        </mxCell>
        <mxCell id="QM2pPld5sJUEKNhpBry5-92" style="edgeStyle=none;rounded=0;orthogonalLoop=1;jettySize=auto;html=1;exitX=0.5;exitY=1;exitDx=0;exitDy=0;entryX=0.375;entryY=0.024;entryDx=0;entryDy=0;entryPerimeter=0;startArrow=none;startFill=0;endArrow=none;endFill=0;" parent="1" source="QM2pPld5sJUEKNhpBry5-51" target="Zx6UGHlu475DOXal6dqd-3" edge="1">
          <mxGeometry relative="1" as="geometry" />
        </mxCell>
        <mxCell id="QM2pPld5sJUEKNhpBry5-51" value="Пароль" style="ellipse;whiteSpace=wrap;html=1;" parent="1" vertex="1">
          <mxGeometry x="280" y="79" width="60" height="27" as="geometry" />
        </mxCell>
        <mxCell id="QM2pPld5sJUEKNhpBry5-62" style="edgeStyle=none;rounded=0;orthogonalLoop=1;jettySize=auto;html=1;exitX=1;exitY=0.5;exitDx=0;exitDy=0;entryX=0;entryY=0.5;entryDx=0;entryDy=0;startArrow=none;startFill=0;endArrow=none;endFill=0;" parent="1" source="QM2pPld5sJUEKNhpBry5-52" target="Zx6UGHlu475DOXal6dqd-3" edge="1">
          <mxGeometry relative="1" as="geometry" />
        </mxCell>
        <mxCell id="QM2pPld5sJUEKNhpBry5-52" value="Логин" style="ellipse;whiteSpace=wrap;html=1;" parent="1" vertex="1">
          <mxGeometry x="180" y="135" width="60" height="32" as="geometry" />
        </mxCell>
        <mxCell id="nbTlTtfBLzUQ6gxLMtbf-2" style="rounded=0;orthogonalLoop=1;jettySize=auto;html=1;exitX=0.5;exitY=1;exitDx=0;exitDy=0;entryX=0.429;entryY=-0.006;entryDx=0;entryDy=0;entryPerimeter=0;endArrow=none;endFill=0;" parent="1" source="nbTlTtfBLzUQ6gxLMtbf-1" target="Zx6UGHlu475DOXal6dqd-8" edge="1">
          <mxGeometry relative="1" as="geometry" />
        </mxCell>
        <mxCell id="nbTlTtfBLzUQ6gxLMtbf-1" value="Уник_код_заявки" style="ellipse;whiteSpace=wrap;html=1;fontStyle=4" parent="1" vertex="1">
          <mxGeometry x="503.5" y="-75" width="100" height="40" as="geometry" />
        </mxCell>
        <mxCell id="nbTlTtfBLzUQ6gxLMtbf-7" style="rounded=0;orthogonalLoop=1;jettySize=auto;html=1;exitX=1;exitY=0;exitDx=0;exitDy=0;entryX=0;entryY=0.75;entryDx=0;entryDy=0;endArrow=none;endFill=0;" parent="1" source="nbTlTtfBLzUQ6gxLMtbf-5" target="Zx6UGHlu475DOXal6dqd-1" edge="1">
          <mxGeometry relative="1" as="geometry" />
        </mxCell>
        <mxCell id="nbTlTtfBLzUQ6gxLMtbf-5" value="Уник_код_клиента" style="ellipse;whiteSpace=wrap;html=1;fontStyle=4" parent="1" vertex="1">
          <mxGeometry x="-90" y="80" width="120" height="40" as="geometry" />
        </mxCell>
        <mxCell id="nbTlTtfBLzUQ6gxLMtbf-9" style="edgeStyle=none;rounded=0;orthogonalLoop=1;jettySize=auto;html=1;exitX=1;exitY=1;exitDx=0;exitDy=0;entryX=0;entryY=0.5;entryDx=0;entryDy=0;endArrow=none;endFill=0;" parent="1" source="nbTlTtfBLzUQ6gxLMtbf-8" target="Zx6UGHlu475DOXal6dqd-2" edge="1">
          <mxGeometry relative="1" as="geometry" />
        </mxCell>
        <mxCell id="nbTlTtfBLzUQ6gxLMtbf-8" value="Уник_код_сотрудника" style="ellipse;whiteSpace=wrap;html=1;fontStyle=4" parent="1" vertex="1">
          <mxGeometry x="-100" y="260" width="130" height="40" as="geometry" />
        </mxCell>
        <mxCell id="nbTlTtfBLzUQ6gxLMtbf-11" style="edgeStyle=none;rounded=0;orthogonalLoop=1;jettySize=auto;html=1;exitX=1;exitY=0.5;exitDx=0;exitDy=0;endArrow=none;endFill=0;" parent="1" source="nbTlTtfBLzUQ6gxLMtbf-10" target="Zx6UGHlu475DOXal6dqd-7" edge="1">
          <mxGeometry relative="1" as="geometry" />
        </mxCell>
        <mxCell id="nbTlTtfBLzUQ6gxLMtbf-10" value="Уник_код_помещения" style="ellipse;whiteSpace=wrap;html=1;fontStyle=4" parent="1" vertex="1">
          <mxGeometry x="360" y="252" width="122" height="40" as="geometry" />
        </mxCell>
        <mxCell id="q2ZPJVXpEgbI9jdxbA0b-3" style="rounded=0;orthogonalLoop=1;jettySize=auto;html=1;exitX=1;exitY=1;exitDx=0;exitDy=0;entryX=0.017;entryY=0.133;entryDx=0;entryDy=0;entryPerimeter=0;endArrow=none;endFill=0;" parent="1" source="q2ZPJVXpEgbI9jdxbA0b-2" target="Zx6UGHlu475DOXal6dqd-8" edge="1">
          <mxGeometry relative="1" as="geometry" />
        </mxCell>
        <mxCell id="q2ZPJVXpEgbI9jdxbA0b-2" value="Дата_заявки" style="ellipse;whiteSpace=wrap;html=1;" parent="1" vertex="1">
          <mxGeometry x="394" y="-85" width="100" height="40" as="geometry" />
        </mxCell>
        <mxCell id="q2ZPJVXpEgbI9jdxbA0b-5" style="rounded=0;orthogonalLoop=1;jettySize=auto;html=1;exitX=0;exitY=0.5;exitDx=0;exitDy=0;entryX=1;entryY=0;entryDx=0;entryDy=0;endArrow=none;endFill=0;" parent="1" source="q2ZPJVXpEgbI9jdxbA0b-4" target="Zx6UGHlu475DOXal6dqd-8" edge="1">
          <mxGeometry relative="1" as="geometry" />
        </mxCell>
        <mxCell id="q2ZPJVXpEgbI9jdxbA0b-4" value="Код_клиента" style="ellipse;whiteSpace=wrap;html=1;" parent="1" vertex="1">
          <mxGeometry x="680" y="-45" width="110" height="40" as="geometry" />
        </mxCell>
        <mxCell id="R94FDkhjAXbVaholJl6M-2" style="rounded=0;orthogonalLoop=1;jettySize=auto;html=1;exitX=1;exitY=0.5;exitDx=0;exitDy=0;entryX=0;entryY=0.5;entryDx=0;entryDy=0;endArrow=none;endFill=0;" parent="1" source="R94FDkhjAXbVaholJl6M-1" target="Zx6UGHlu475DOXal6dqd-7" edge="1">
          <mxGeometry relative="1" as="geometry" />
        </mxCell>
        <mxCell id="R94FDkhjAXbVaholJl6M-1" value="Фото" style="ellipse;whiteSpace=wrap;html=1;" parent="1" vertex="1">
          <mxGeometry x="383.5" y="310" width="75" height="30" as="geometry" />
        </mxCell>
        <mxCell id="R94FDkhjAXbVaholJl6M-4" style="rounded=0;orthogonalLoop=1;jettySize=auto;html=1;exitX=0;exitY=0.5;exitDx=0;exitDy=0;entryX=1;entryY=0.25;entryDx=0;entryDy=0;endArrow=none;endFill=0;" parent="1" source="R94FDkhjAXbVaholJl6M-3" target="Zx6UGHlu475DOXal6dqd-1" edge="1">
          <mxGeometry relative="1" as="geometry" />
        </mxCell>
        <mxCell id="R94FDkhjAXbVaholJl6M-3" value="Фото_профиля" style="ellipse;whiteSpace=wrap;html=1;" parent="1" vertex="1">
          <mxGeometry x="200" y="-7" width="92" height="40" as="geometry" />
        </mxCell>
        <mxCell id="R94FDkhjAXbVaholJl6M-6" style="rounded=0;orthogonalLoop=1;jettySize=auto;html=1;exitX=0;exitY=0;exitDx=0;exitDy=0;entryX=0.942;entryY=1.017;entryDx=0;entryDy=0;entryPerimeter=0;endArrow=none;endFill=0;" parent="1" source="R94FDkhjAXbVaholJl6M-5" target="Zx6UGHlu475DOXal6dqd-1" edge="1">
          <mxGeometry relative="1" as="geometry" />
        </mxCell>
        <mxCell id="R94FDkhjAXbVaholJl6M-5" value="Пол" style="ellipse;whiteSpace=wrap;html=1;" parent="1" vertex="1">
          <mxGeometry x="150" y="90" width="50" height="27" as="geometry" />
        </mxCell>
        <mxCell id="R94FDkhjAXbVaholJl6M-8" style="edgeStyle=orthogonalEdgeStyle;rounded=0;orthogonalLoop=1;jettySize=auto;html=1;exitX=0;exitY=0.5;exitDx=0;exitDy=0;entryX=1;entryY=0.5;entryDx=0;entryDy=0;endArrow=none;endFill=0;" parent="1" source="R94FDkhjAXbVaholJl6M-7" target="Zx6UGHlu475DOXal6dqd-2" edge="1">
          <mxGeometry relative="1" as="geometry" />
        </mxCell>
        <mxCell id="R94FDkhjAXbVaholJl6M-7" value="Пол" style="ellipse;whiteSpace=wrap;html=1;" parent="1" vertex="1">
          <mxGeometry x="185" y="283" width="50" height="27" as="geometry" />
        </mxCell>
        <mxCell id="R94FDkhjAXbVaholJl6M-10" style="edgeStyle=orthogonalEdgeStyle;rounded=0;orthogonalLoop=1;jettySize=auto;html=1;exitX=0;exitY=0.5;exitDx=0;exitDy=0;entryX=1;entryY=0.75;entryDx=0;entryDy=0;endArrow=none;endFill=0;" parent="1" source="R94FDkhjAXbVaholJl6M-9" target="Zx6UGHlu475DOXal6dqd-3" edge="1">
          <mxGeometry relative="1" as="geometry" />
        </mxCell>
        <mxCell id="R94FDkhjAXbVaholJl6M-9" value="Фото_профиля" style="ellipse;whiteSpace=wrap;html=1;" parent="1" vertex="1">
          <mxGeometry x="411.5" y="140" width="92" height="40" as="geometry" />
        </mxCell>
        <mxCell id="R94FDkhjAXbVaholJl6M-12" style="rounded=0;orthogonalLoop=1;jettySize=auto;html=1;exitX=1;exitY=1;exitDx=0;exitDy=0;entryX=0;entryY=0.25;entryDx=0;entryDy=0;endArrow=none;endFill=0;" parent="1" source="R94FDkhjAXbVaholJl6M-11" target="Zx6UGHlu475DOXal6dqd-8" edge="1">
          <mxGeometry relative="1" as="geometry" />
        </mxCell>
        <mxCell id="R94FDkhjAXbVaholJl6M-11" value="Код_сотрудника" style="ellipse;whiteSpace=wrap;html=1;" parent="1" vertex="1">
          <mxGeometry x="348.5" y="-35" width="110" height="40" as="geometry" />
        </mxCell>
      </root>
    </mxGraphModel>
  </diagram>
</mxfile>
